<?xml version="1.0" standalone="no"?><!DOCTYPE svg PUBLIC "-//W3C//DTD SVG 1.1//EN" "http://www.w3.org/Graphics/SVG/1.1/DTD/svg11.dtd"><svg class="icon" height="512" viewBox="0 0 1024 1024" version="1.1" xmlns="http://www.w3.org/2000/svg"><path d="M968.55105 324.124211c-25.375191-59.991453-61.697095-113.866159-107.956826-160.12589-46.260739-46.260739-100.135444-82.581636-160.126897-107.956826C638.348352 29.767167 572.372051 16.445242 504.369923 16.445242c-68.002128 0-133.979436 13.321925-196.09841 39.596252-59.991453 25.375191-113.865152 61.696088-160.12589 107.956826-46.260739 46.259732-82.582643 100.134437-107.956826 160.12589-26.274327 62.118974-39.596252 128.096282-39.596252 196.09841s13.321925 133.979436 39.596252 196.09841c25.374184 59.991453 61.696088 113.866159 107.956826 160.12589 46.260739 46.260739 100.134437 82.581636 160.12589 107.956826 13.170894 5.571023 26.525039 10.52282 40.02518 14.925872l0 0.407783 1.262618 0c49.787812 16.090823 101.675958 24.262597 154.810613 24.262597 53.134654 0 105.022801-8.171774 154.809606-24.262597l0.125859 0 0-0.040275c13.887787-4.492663 27.621522-9.566292 41.161938-15.29338 26.070939-11.027263 50.982969-24.127676 74.621305-39.206593l0.006041 0 0-0.004027c13.488059-8.604729 26.558265-17.85889 39.19149-27.74134l0.009062 0 0-0.007048c16.166338-12.646314 31.618805-26.317623 46.299-40.997818 46.259732-46.259732 82.581636-100.134437 107.956826-160.12589 26.274327-62.118974 39.596252-128.096282 39.596252-196.09841S994.826384 386.243185 968.55105 324.124211zM533.626606 348.862052c3.232059 2.151686 40.949488 65.740693 87.28977 71.128466 7.547513 1.617037 28.021251 12.392582 46.333233 12.932265 4.848089 0.539683 36.10442 16.164325 5.3918 58.19318-1.61905 3.100159-11.720998 17.649461-38.796796 26.134372-1.61603 2.830317-28.691827 94.972204-96.183471 122.857527-3.232059 0.806505-31.926907 15.358827-64.661326 0-3.236087-0.809525-64.661326-25.459768-96.994003-122.452764-2.831324-1.61603-19.400412-5.252852-32.332677-19.399405-1.61603-2.020792-48.897737-47.281707 12.527503-71.935977 4.042591-2.020792 50.113031-22.227708 71.940005-103.05638 2.827297-3.232059 2.574572-4.578247 8.491959-6.733961 0 0 26.401193 75.977562 100.226062 84.061738C537.938032 392.510964 527.695122 401.130796 533.626606 348.862052zM256.318927 917.450781l0 0.906185c-0.487326-0.305082-0.9817-0.599089-1.46802-0.906185L256.318927 917.450781zM835.959084 851.810775c-1.493191 1.493191-3.015582 2.946108-4.52589 4.417148 3.836183-104.779138-84.877304-136.298262-91.704904-139.334989-42.027848-18.590886-123.664031-39.6033-123.664031-39.6033s0.806505-25.059033 0.007048-50.382873c136.870166 2.155713 145.486977-14.011632 154.107816-18.325072-39.877169-63.583973-45.264942-189.674566-46.344309-202.606831-10.78058-94.837283-36.637055-134.710425-45.261921-148.722057-129.325673-162.734696-251.103833-62.504606-251.103833-62.504606-84.323525-3.232059-106.42336 75.17005-109.65844 83.251206-14.548295 42.032883-24.244473 120.434992-26.671035 130.132178-19.400412 151.958144-60.622762 199.64562-63.854822 206.113767 50.922556 18.58988 166.506439 12.12274 166.506439 12.12274s0.806505 32.332677 0.806505 51.729061c-62.234764 8.889674-151.954117 52.538586-160.844797 58.197207-47.24848 30.709599-53.498135 92.051268-53.43873 122.869609-2.531276-2.422534-5.04745-4.866213-7.53241-7.35218C84.210251 763.240264 35.432333 645.479524 35.432333 520.222621S84.210251 277.203971 172.780762 188.634467C261.351273 100.062949 379.112014 51.28503 504.369923 51.28503s243.017643 48.777919 331.589161 137.349437c88.571518 88.570511 137.349437 206.331251 137.349437 331.588154S924.530602 763.240264 835.959084 851.810775z" /></svg>