<svg xmlns="http://www.w3.org/2000/svg" width="1920.001" height="1886.425" viewBox="0 0 1920.001 1886.425">
  <g id="Logo_1080p" data-name="Logo 1080p" transform="translate(-445.164 -318.091)">
    <path id="uff" d="M2221.271,760.546q-4.008,20.3-9.354,39.533-7.143,20.666-14.7,40.6-7.582,19.947-16.484,39.884-15.161,34.912-32.969,68.382a720.244,720.244,0,0,1-40.1,66.239q-24.958,37.043-49.9,74.077a509.1,509.1,0,0,0-42.77,76.924q-2.675,7.131-5.791,13.535a65.1,65.1,0,0,0-4.9,14.246l-11.582,41.311-24.059,85.474a535.893,535.893,0,0,1,61.482-46.3,363.4,363.4,0,0,1,71.283-35.615,41.483,41.483,0,0,1,16.93-2.491q9.8.366,8.91,10.328-1.8,6.407-9.8,9.614a73.646,73.646,0,0,0-13.365,6.767,260.687,260.687,0,0,0-30.295,18.874,303.947,303.947,0,0,0-26.729,21.726,437.214,437.214,0,0,0-59.7,65.885,534.957,534.957,0,0,0-45.441,73.722q-7.146,13.519-13.814,27.422a193.937,193.937,0,0,0-11.137,28.846q-1.8,7.112-4.01,14.246-2.235,7.112-4.9,14.246-4.468,14.238-8.465,27.778-4.008,13.521-8.463,27.781-1.8,9.243-4.457,18.518a49.38,49.38,0,0,1-8.91,17.092q-9.814,13.523-27.621,19.234a73.284,73.284,0,0,1-36.533,2.135,18.263,18.263,0,0,1-4.455-.713,43.093,43.093,0,0,1-4.455-1.422q-17.815-5.71-28.068-18.875-10.233-13.191-8.465-28.135,1.8-12.825,4.455-25.645,2.675-12.82,5.348-24.93l16.039-69.09q19.605-77.643,41.434-154.206,4.02-14.1,8.1-28.242c-5.912,4.642-11.6,9.416-17,14.353a437.3,437.3,0,0,0-59.7,65.885,535.16,535.16,0,0,0-45.443,73.722q-7.143,13.519-13.811,27.422a193.731,193.731,0,0,0-11.139,28.846q-1.8,7.112-4.01,14.246-2.232,7.112-4.9,14.246-4.471,14.238-8.465,27.778-4.008,13.521-8.465,27.781-1.8,9.243-4.455,18.518a49.413,49.413,0,0,1-8.91,17.092q-9.814,13.523-27.623,19.234a73.283,73.283,0,0,1-36.533,2.135,18.291,18.291,0,0,1-4.455-.713,43.4,43.4,0,0,1-4.455-1.422q-17.812-5.71-28.066-18.875-10.233-13.191-8.467-28.135,1.8-12.825,4.455-25.645,2.675-12.82,5.348-24.93l16.039-69.09c1.639-6.494,3.324-12.965,4.99-19.448-2.957.405-5.943.733-8.986.928a106.878,106.878,0,0,1-43.662-6.054,79.318,79.318,0,0,1-33.859-23.149q-14.262-16.389-19.156-35.612a155.014,155.014,0,0,1-4.9-38.463,360.792,360.792,0,0,1-24.058,33.834,192.287,192.287,0,0,1-30.295,30.272,171.955,171.955,0,0,1-37.871,22.791,157.181,157.181,0,0,1-45.889,12.108,242.646,242.646,0,0,1-32.076.713,100.982,100.982,0,0,1-31.187-6.409q-21.385-7.849-34.751-22.437a106.317,106.317,0,0,1-20.494-32.41,146.361,146.361,0,0,1-5.346-75.145c.385-2.1.8-4.176,1.212-6.257-96.834,64.231-198.519,81.483-198.519,81.483,150.164,44.577,175.973,180.652,175.973,180.652,5.778,21.957,2.768,36.4-1.865,48.612-79.131,77.976-168.792,121.829-252.4,145.8,70.913-50.36,122.956-119.728,125.221-196.755,4.692-159.541-185.356-161.888-255.745-175.963s4.692-25.809,4.692-25.809,129.047-16.422,234.629-61,384.793-340.2,56.311-370.694-506.8,274.5-506.8,274.5c-32.849,32.848-49.274,21.116-75.082,14.075s-61-61-61-61c-11.731-30.5,4.692-58.654,4.692-58.654,72.735-105.576,262.859-210.895,405.91-241.656,184.589-39.7,466.538,6.254,503.579,159.123a71.178,71.178,0,0,1,29.877,1.867,66.488,66.488,0,0,1,29.85,17.094q12.031,12.117,13.813,27.778a34.029,34.029,0,0,1-4.011,19.589q-4.907,8.911-11.138,18.161-29.405,44.87-56.135,91.883-21.385,36.33-41.434,74.791a253.276,253.276,0,0,0-26.286,79.061q-.9,5.71-1.783,13.176a42.867,42.867,0,0,0,.446,13.893,24.179,24.179,0,0,0,5.792,11.395q4.449,4.991,14.257,5.7a72.967,72.967,0,0,0,37.869-2.851,175.036,175.036,0,0,0,33.414-15.67,187.7,187.7,0,0,0,32.968-28.492,393.922,393.922,0,0,0,26.731-32.764,376.638,376.638,0,0,0,24.06-37.75q1.772-9.962,4.01-19.588,2.212-9.611,4.9-19.586,10.69-41.3,25.395-81.914,14.7-40.594,32.521-80.484,5.347-12.1,11.139-23.861t19.158-19.588a74.994,74.994,0,0,1,33.859-10.685,70.826,70.826,0,0,1,35.641,6.41q16.037,7.849,24.5,21.369,8.458,13.538,5.791,28.491a55.373,55.373,0,0,1-7.127,18.875q-5.347,8.915-9.8,18.164-20.508,39.176-40.1,79.061-19.611,39.9-34.75,80.485-7.143,19.951-13.367,40.246a196.264,196.264,0,0,0-8.02,40.954,77.984,77.984,0,0,1-.891,9.261,46.073,46.073,0,0,0,0,12.822,36.839,36.839,0,0,0,3.119,11.038q2.212,4.644,8.465,3.918a27.606,27.606,0,0,0,12.029-1.424,80.146,80.146,0,0,0,13.367-5.7c.545-.293,1.064-.583,1.6-.873q9.021-33.308,18.432-66.436,21.847-76.56,45-154.209,26.733-85.471,56.137-170.943,15.138-42.019,30.295-83.338,15.141-41.3,32.967-81.909a409.376,409.376,0,0,1,39.207-68.381q23.159-32.752,58.809-57.692a210.623,210.623,0,0,1,35.643-18.875,92.056,92.056,0,0,1,41.879-6.766q23.159,1.436,34.75,14.6a53.369,53.369,0,0,1,13.365,30.272,141.756,141.756,0,0,1-2.227,40.241q-4.011,20.3-9.357,39.533-7.14,20.666-14.7,40.6-7.579,19.947-16.484,39.884-15.161,34.912-32.969,68.382a720.244,720.244,0,0,1-40.1,66.239q-24.955,37.043-49.9,74.077a509.111,509.111,0,0,0-42.771,76.924q-2.672,7.131-5.791,13.535a65.1,65.1,0,0,0-4.9,14.246l-11.584,41.311-24.059,85.474a535.893,535.893,0,0,1,61.482-46.3,355.113,355.113,0,0,1,45.426-24.885q12.5-42.955,25.4-86.232,26.73-85.471,56.137-170.943,15.141-42.019,30.293-83.338,15.144-41.3,32.971-81.909a409.365,409.365,0,0,1,39.205-68.381q23.159-32.752,58.809-57.692a210.474,210.474,0,0,1,35.643-18.875,92.052,92.052,0,0,1,41.879-6.766q23.159,1.436,34.75,14.6A53.356,53.356,0,0,1,2223.5,720.3,141.757,141.757,0,0,1,2221.271,760.546ZM1894.717,914.755a679.937,679.937,0,0,0,39.65-67.668q8.019-15.656,14.7-31.694t12.027-32.407a128.022,128.022,0,0,0,5.346-37.039q0-1.418-.443-6.412a68.666,68.666,0,0,0-1.783-10.325,37.056,37.056,0,0,0-3.564-9.261q-2.235-3.91-5.791-3.916v1.422a1.891,1.891,0,0,0,.891,1.424,26.7,26.7,0,0,0-14.258,10.685q-5.344,7.849-9.8,14.246a118.348,118.348,0,0,0-9.355,16.384q-4.011,8.544-8.465,17.094l-13.365,30.629q-9.817,21.365-17.375,42.379-7.582,21.018-14.7,43.092-7.14,20.666-12.92,42.024-5.8,21.369-12.029,42.024A428.7,428.7,0,0,0,1894.717,914.755Zm291.8-175.221a68.42,68.42,0,0,0-1.783-10.325,37.056,37.056,0,0,0-3.562-9.261q-2.232-3.91-5.791-3.916v1.422a1.9,1.9,0,0,0,.891,1.424,26.7,26.7,0,0,0-14.258,10.685q-5.344,7.849-9.8,14.246a118.149,118.149,0,0,0-9.355,16.384q-4.011,8.544-8.467,17.094l-13.363,30.629q-9.817,21.365-17.377,42.379-7.579,21.018-14.7,43.092-7.14,20.666-12.918,42.024-5.807,21.369-12.029,42.024a428.687,428.687,0,0,0,51.234-62.68,679.179,679.179,0,0,0,39.65-67.668q8.021-15.656,14.7-31.694t12.029-32.407a128.09,128.09,0,0,0,5.348-37.039C2186.969,745,2186.814,742.863,2186.521,739.534Z" transform="translate(1.886 211.134)" fill="#c11d1d"/>
    <path id="unch" d="M2268.528,1713.311q-2.733,4.093-4.359,6.816a546.476,546.476,0,0,1-31.867,55.365,294.983,294.983,0,0,1-40.584,49.361,140.28,140.28,0,0,1-20.156,16.367,90.147,90.147,0,0,1-24.514,12,52.574,52.574,0,0,1-24.785,1.639q-12.258-2.191-22.062-14.186a44.989,44.989,0,0,1-10.624-25.635,164.21,164.21,0,0,1-.271-28.363,220.53,220.53,0,0,1,4.358-31.09q3.268-15.267,7.626-30.547,7.622-31.093,16.615-61.092a625.759,625.759,0,0,0,14.979-61.09,115.6,115.6,0,0,0-48.21,27.816,332.422,332.422,0,0,0-37.315,42.547q-17.439,24.006-32.412,49.092a585.681,585.681,0,0,0-27.509,51.816q-3.817,8.183-6.537,15.275a90.281,90.281,0,0,0-4.357,15.818l-5.449,20.727q-1.632,6.545-3.54,13.09a34.7,34.7,0,0,1-6.265,12,38.21,38.21,0,0,1-16.343,11.18,31.545,31.545,0,0,1-19.61.818q-20.146-5.461-26.148-24.545a32.733,32.733,0,0,1-1.633-13.09q.548-6.545,1.633-13.637c.054-.518.13-1.053.185-1.57q-4.658,3.979-9.439,7.842a292.127,292.127,0,0,1-50.117,32.453,194.858,194.858,0,0,1-47.937,16.639,119.549,119.549,0,0,1-50.116-.273,104.986,104.986,0,0,1-51.479-27.273,111.881,111.881,0,0,1-27.568-42.23,323.063,323.063,0,0,1-23.909,27.5,164.95,164.95,0,0,1-20.972,17.457,89.264,89.264,0,0,1-25.6,12.818,53.616,53.616,0,0,1-26.147,1.637q-12.807-2.455-22.606-16.094a48.129,48.129,0,0,1-9.806-26.182,146.4,146.4,0,0,1,.545-28.361,291.889,291.889,0,0,1,4.9-31.092q3.268-15.264,7.626-31.092,7.622-29.455,16.343-58.906,8.706-29.458,14.708-60a105.177,105.177,0,0,0-40.039,22.637,253.5,253.5,0,0,0-31.323,34.088A466.644,466.644,0,0,0,1479.2,1702.4q-12.538,21-23.425,43.365-11.987,24.006-21.244,46.363-3.268,8.73-6.538,17.18a94.725,94.725,0,0,0-4.9,17.727,55.633,55.633,0,0,1-4.084,14.457,36.448,36.448,0,0,1-8.989,12.275q-13.623,11.985-32.141,9.27-16.34-3.27-25.331-17.727c-.411-.662-.75-1.334-1.121-2a118.341,118.341,0,0,1-11.943,8,59.248,59.248,0,0,1-25.331,7.908,53.316,53.316,0,0,1-26.693-4.635,49.786,49.786,0,0,1-20.7-17.73,72.686,72.686,0,0,1-11.714-27.271,147.286,147.286,0,0,1-3-29.453,284.511,284.511,0,0,1-14.707,25.906,136.394,136.394,0,0,1-18.521,23.184,103.735,103.735,0,0,1-23.151,17.455,81.312,81.312,0,0,1-28.055,9.273,118.822,118.822,0,0,1-19.611.545,51.059,51.059,0,0,1-19.065-4.908,53.5,53.5,0,0,1-21.246-17.182,86.4,86.4,0,0,1-12.528-24.82,139.155,139.155,0,0,1-3.269-57.545,460.677,460.677,0,0,1,11.983-57,573.889,573.889,0,0,1,19.884-61.363q11.708-30.272,25.876-59.729,3.8-8.186,7.9-17.18a68.768,68.768,0,0,1,10.078-16.094,37.558,37.558,0,0,1,18.793-12.543,35.259,35.259,0,0,1,22.063.541,39.717,39.717,0,0,1,18.248,13.092,39.284,39.284,0,0,1,8.443,21.275,31.681,31.681,0,0,1-2.452,15q-3,6.826-6.808,13.906-17.978,34.365-34.319,70.367-13.075,27.814-25.331,57.271a229.5,229.5,0,0,0-16.069,60.547c-.367,2.916-.732,6.27-1.091,10.09a40.994,40.994,0,0,0,.272,10.635,20.549,20.549,0,0,0,3.541,8.729q2.72,3.82,8.717,4.367a36.167,36.167,0,0,0,23.151-2.184,99.148,99.148,0,0,0,20.429-12,127.264,127.264,0,0,0,20.153-21.814,299.328,299.328,0,0,0,16.344-25.094,305.733,305.733,0,0,0,14.709-28.91q1.084-7.635,2.451-15t3-15q6.538-31.626,15.526-62.725t19.882-61.639q3.27-9.27,6.812-18.273a33.616,33.616,0,0,1,11.711-15,39.67,39.67,0,0,1,20.7-8.18,35.764,35.764,0,0,1,21.789,4.906,39.587,39.587,0,0,1,14.981,16.365,36.308,36.308,0,0,1,3.539,21.816,49.459,49.459,0,0,1-4.357,14.455q-3.268,6.826-5.991,13.91-12.539,30-24.515,60.545t-21.245,61.639q-4.365,15.278-8.171,30.814a184.273,184.273,0,0,0-4.9,31.369c0,1.457-.187,3.814-.545,7.086a44.127,44.127,0,0,0,0,9.818,33.753,33.753,0,0,0,1.908,8.455,4.332,4.332,0,0,0,5.174,3,13.716,13.716,0,0,0,7.355-1.09,44.392,44.392,0,0,0,8.17-4.365,84.414,84.414,0,0,0,7.354-5.453c2.18-1.816,4.17-3.453,5.992-4.91,4.58-3.975,8.884-7.91,13.015-11.82l17.481-63.455,34.319-124.908q2.719-9.267,5.176-18.545t5.174-18.545l1.636-5.455a23.718,23.718,0,0,1,13.618-16.637,24.8,24.8,0,0,1,21.79-.273,25.818,25.818,0,0,1,9.806,7.908,23.324,23.324,0,0,1,4.085,10.092,48.155,48.155,0,0,1,.272,11.455,109.48,109.48,0,0,1-1.634,11.455l-9.806,56.182-16.888,93.816q12.526-32.722,26.966-63.543T1499.9,1603.4q7.622-13.093,16.342-25.637a169.67,169.67,0,0,1,19.34-23.182,108.813,108.813,0,0,1,23.7-18,84.885,84.885,0,0,1,50.935-10.635,45.212,45.212,0,0,1,20.428,7.09,55.7,55.7,0,0,1,19.611,19.912,61.876,61.876,0,0,1,8.171,26.453,109.048,109.048,0,0,1-.816,29.727,241.586,241.586,0,0,1-17.433,58.635q-6.271,14.194-11.713,27.275-6.538,14.73-12.8,29.182T1603.4,1753.4q-6,14.191-11.438,28.637a104.082,104.082,0,0,0-6.538,29.184,61.6,61.6,0,0,0,26.421-12.271q12.256-9.542,22.606-18.82,10.438-9.41,20.631-19.832c-.173-1.926-.362-3.842-.479-5.8a171.871,171.871,0,0,1,9.262-61.914,305.955,305.955,0,0,1,26.148-57,265.231,265.231,0,0,1,37.313-48.273,187.193,187.193,0,0,1,49.3-36.273,127.062,127.062,0,0,1,43.851-12.816q23.15-2.458,44.4,11.182a76.857,76.857,0,0,1,22.336,21.545,92.47,92.47,0,0,1,12.8,27.818,109.719,109.719,0,0,1,3.813,30.818,130.968,130.968,0,0,1-4.086,30.545,122.393,122.393,0,0,1-12.258,27.273,93.951,93.951,0,0,1-19.338,22.908,80.906,80.906,0,0,1-17.433,12.271,39.252,39.252,0,0,1-20.7,4.639q-13.072-.539-22.062-8.182a40.379,40.379,0,0,1-12.529-18.273,39.521,39.521,0,0,1-.816-22.088q2.719-11.455,13.072-19.639a95.132,95.132,0,0,0,13.076-12.275,40.837,40.837,0,0,0,8.171-16.09,87.817,87.817,0,0,0,2.452-13.363,44.309,44.309,0,0,0-.545-13.908,27.883,27.883,0,0,0-5.449-11.727,22.1,22.1,0,0,0-11.166-7.365,50.557,50.557,0,0,0-24.787-1.361,66.442,66.442,0,0,0-22.062,9,87.535,87.535,0,0,0-18.795,16.092,123.05,123.05,0,0,0-14.434,19.908,148.969,148.969,0,0,0-19.612,59.186,161.172,161.172,0,0,0-1.091,16.2q1.838,1.389,2.184,4.8c.335,2.043-.317,4.332-1.883,6.85a146.609,146.609,0,0,0,6.237,34.6,106.438,106.438,0,0,0,11.713,23.729,44.423,44.423,0,0,0,19.884,16.635,59.906,59.906,0,0,0,15.524,4.367q7.891,1.1,15.524,1.635a157.6,157.6,0,0,0,61.285-9.818,286.3,286.3,0,0,0,55.291-27.818c3.353-2.146,6.64-4.348,9.895-6.568q13.188-72.322,29.868-142.887,13.61-57.809,28.6-114.822,14.975-56.991,35.681-112.635a387.675,387.675,0,0,1,25.331-55.365,153.544,153.544,0,0,1,38.95-46.09,88.228,88.228,0,0,1,21.244-12.816,50.054,50.054,0,0,1,24.514-4.1q15.794,1.641,22.063,13.639a55.823,55.823,0,0,1,6.264,26.184,180.664,180.664,0,0,1-6.264,51.271q-6.817,25.1-14.436,49.637-9.271,27.82-19.884,54.545a575.208,575.208,0,0,1-24.241,52.91q-14.708,28.365-30.233,56.457a514.452,514.452,0,0,0-27.51,58.09,178.342,178.342,0,0,0-10.351,35.727q-3.268,18.281-7.626,35.729,11.439-26.183,24.786-50.457t28.6-48.273q8.172-13.087,17.432-25.359a169.42,169.42,0,0,1,20.156-22.365,114.625,114.625,0,0,1,24.241-17.184,87.078,87.078,0,0,1,29.143-9.271,79.918,79.918,0,0,1,21.791-.275,47.585,47.585,0,0,1,20.156,7.365,52.742,52.742,0,0,1,18.521,19.91,73.715,73.715,0,0,1,8.171,26.455,105.676,105.676,0,0,1-1.089,30.271,227.333,227.333,0,0,1-7.627,30q-4.9,15.009-11.166,29.457t-11.713,28.09l-25.059,58.363q-5.454,13.093-10.622,27a102.525,102.525,0,0,0-6.265,28.09,61.07,61.07,0,0,0,26.147-12q11.975-9.267,22.335-18.543,11.439-9.817,22.063-20.729t20.427-22.363q14.161-16.359,27.239-32.182a8.772,8.772,0,0,1,7.082-3.273c2.9,0,4.536,1.824,4.9,5.455A11.319,11.319,0,0,1,2268.528,1713.311Zm-688.008,97.637a3.809,3.809,0,0,0-1.635-.275.482.482,0,0,0,.545.549,2.191,2.191,0,0,1,1.362.271c.178.189.629.094,1.362-.271A3.7,3.7,0,0,1,1580.52,1810.947Zm496.8-368.73a585.561,585.561,0,0,0,24.513-54.273q4.356-10.9,7.9-21.816t6.265-22.365a110.565,110.565,0,0,0,2.724-28.361,39.932,39.932,0,0,0-2.18-13.639,25.891,25.891,0,0,0-1.905-4.635c-1.278-2.729-2.272-3.725-3-3,0,.367.273.734.818,1.09s.45.734-.273,1.092a29.2,29.2,0,0,0-8.172,8.182,79.048,79.048,0,0,0-8.442,14.182q-3.549,7.644-6.265,15.273l-15.8,44.727q-7.085,20.736-12.257,42.271-5.183,21.557-9.534,43.367l-6.535,28.363A329.013,329.013,0,0,0,2077.321,1442.217ZM765.741,1842.512S388.695,1855.1,452.419,1564.838c33.028-150.439,162.339-311.2,258.035-413.582-20.118-36.316,8.292-73.707,8.292-73.707L905.21,884.516l4.3,2.637-133.5,156.678c-4.628,14.369,12.339,14.688,12.339,14.688L937.218,907.7l1.861,4.7L798.638,1070.75c-3.7,16.725,12.534,12.432,12.534,12.432L964.34,935l2.057,2.445L828.2,1096c-4.1,8.168,8.228,9.791,8.228,9.791l152.781-143.67,2.057,2.449L808.536,1167c-21.132,20.086-48.413,17.648-62.3,14.607-256.844,356.207-198.286,441.607-126.3,504.045,143.719,124.666,432.084-55.5,459.126-78.826s30.773,0,30.773,0C1017.516,1841.977,765.741,1842.512,765.741,1842.512Z" transform="translate(0 334.867)" fill="#fead00"/>
    <path id="Shape_8" data-name="Shape 8" d="M1360.769,1183.556l28.642-233.906s256.4,97.465,335.742-109.792-85.158-332.953-259.365-268.91c0,0-9.739-204.244-257.773-251.411,0,0-102.838-15.6-190.943,55.693S724.292,477.066,724.292,477.066s125.654,20.954,326.194-47.736,342.154-24.2,369.158,157.528c0,0-29.423,48.955-33.416,70.014,0,0,148.991-133.207,275.277-23.868s-13.477,278.211-112.976,288.006-157.559-15.411-208.447-49.327c0,0-8.751-3.978,1.593-7.956s70.012-48.53,73.194-100.245c0,0-81.945,109.792-195.718,65.239,0,0,98.653-62.056,71.605-202.082,0,0-20.687,187.763-184.579,179.8,0,0,28.641-62.852,9.547-98.653,0,0-11.935,85.129-82.742,93.88s-171.85-7.955-206.855-27.05-93.881-80.355-117.749-136.844c0,0-7.956,80.356,79.561,163.894,0,0-108.2,112.975-237.089-50.918s52.511-284.824,93.882-294.37,84.333-20.687,178.214-30.233,151.163-70.013,151.163-70.013-84.333,46.145-229.132,50.919-301.521,71.6-270.5,270.5C505.89,879.018,751.34,916.237,775.209,905.1c0,0,23.867-76.377,98.654-76.377s219.585-39.78,418.482,84.333c0,0,70.014,30.232,35.009,181.4,0,0-128.889-85.924-381.889-57.283C945.466,1037.167,1254.16,1022.845,1360.769,1183.556Z" transform="translate(14.983 0)" fill="#c11d1d"/>
    <path id="Path_75" data-name="Path 75" d="M78.622,10.28H46.884V90.046H31.858V10.28H.12V-2.64h78.5ZM195.6,90.046H181.84V36.4l.983-25.559h-.14l-28.227,79.2h-12.5l-28.227-79.2h-.14L114.713,36.4V90.046h-13.9V-2.64h22.329l18.678,53.645,6.46,22.048h.281l6.6-22.048L173.7-2.64H195.6Z" transform="translate(2169.562 1281.296)" fill="#c11d1d"/>
  </g>
</svg>
